<mxfile host="app.diagrams.net" agent="Mozilla/5.0 (Windows NT 10.0; Win64; x64) AppleWebKit/537.36 (KHTML, like Gecko) Chrome/127.0.0.0 Safari/537.36" version="24.7.6">
  <diagram name="第 1 页" id="W4bSUOw1dxwQHgGHtSeJ">
    <mxGraphModel dx="954" dy="606" grid="1" gridSize="10" guides="1" tooltips="1" connect="1" arrows="1" fold="1" page="1" pageScale="1" pageWidth="827" pageHeight="1169" math="0" shadow="0">
      <root>
        <mxCell id="0" />
        <mxCell id="1" parent="0" />
        <mxCell id="3yQ-uEPfvCkX8q001NSK-3" value="" style="edgeStyle=orthogonalEdgeStyle;rounded=0;orthogonalLoop=1;jettySize=auto;html=1;" edge="1" parent="1" source="3yQ-uEPfvCkX8q001NSK-1" target="3yQ-uEPfvCkX8q001NSK-2">
          <mxGeometry relative="1" as="geometry" />
        </mxCell>
        <mxCell id="3yQ-uEPfvCkX8q001NSK-1" value="&lt;font style=&quot;font-size: 17px;&quot;&gt;开始&lt;/font&gt;" style="ellipse;whiteSpace=wrap;html=1;" vertex="1" parent="1">
          <mxGeometry x="100" y="30" width="80" height="80" as="geometry" />
        </mxCell>
        <mxCell id="3yQ-uEPfvCkX8q001NSK-5" value="" style="edgeStyle=orthogonalEdgeStyle;rounded=0;orthogonalLoop=1;jettySize=auto;html=1;" edge="1" parent="1" source="3yQ-uEPfvCkX8q001NSK-2" target="3yQ-uEPfvCkX8q001NSK-4">
          <mxGeometry relative="1" as="geometry" />
        </mxCell>
        <mxCell id="3yQ-uEPfvCkX8q001NSK-2" value="获取地图Sensor版本信息" style="whiteSpace=wrap;html=1;" vertex="1" parent="1">
          <mxGeometry x="80" y="200" width="120" height="60" as="geometry" />
        </mxCell>
        <mxCell id="3yQ-uEPfvCkX8q001NSK-10" value="" style="edgeStyle=orthogonalEdgeStyle;rounded=0;orthogonalLoop=1;jettySize=auto;html=1;" edge="1" parent="1" source="3yQ-uEPfvCkX8q001NSK-4" target="3yQ-uEPfvCkX8q001NSK-9">
          <mxGeometry relative="1" as="geometry" />
        </mxCell>
        <mxCell id="3yQ-uEPfvCkX8q001NSK-11" value="&lt;font style=&quot;font-size: 14px;&quot;&gt;True&lt;/font&gt;" style="edgeLabel;html=1;align=center;verticalAlign=middle;resizable=0;points=[];fontSize=14;" vertex="1" connectable="0" parent="3yQ-uEPfvCkX8q001NSK-10">
          <mxGeometry x="-0.2" y="-2" relative="1" as="geometry">
            <mxPoint as="offset" />
          </mxGeometry>
        </mxCell>
        <mxCell id="3yQ-uEPfvCkX8q001NSK-18" value="" style="edgeStyle=orthogonalEdgeStyle;rounded=0;orthogonalLoop=1;jettySize=auto;html=1;" edge="1" parent="1" source="3yQ-uEPfvCkX8q001NSK-4" target="3yQ-uEPfvCkX8q001NSK-17">
          <mxGeometry relative="1" as="geometry" />
        </mxCell>
        <mxCell id="3yQ-uEPfvCkX8q001NSK-22" value="False" style="edgeLabel;html=1;align=center;verticalAlign=middle;resizable=0;points=[];fontSize=12;" vertex="1" connectable="0" parent="3yQ-uEPfvCkX8q001NSK-18">
          <mxGeometry y="4" relative="1" as="geometry">
            <mxPoint as="offset" />
          </mxGeometry>
        </mxCell>
        <mxCell id="3yQ-uEPfvCkX8q001NSK-4" value="Sensor version == Marker || MarkerAndLidar ？" style="rhombus;whiteSpace=wrap;html=1;" vertex="1" parent="1">
          <mxGeometry x="40" y="330" width="200" height="80" as="geometry" />
        </mxCell>
        <mxCell id="3yQ-uEPfvCkX8q001NSK-9" value="路径下是否有locate_map.data？" style="rhombus;whiteSpace=wrap;html=1;" vertex="1" parent="1">
          <mxGeometry x="320" y="330" width="200" height="80" as="geometry" />
        </mxCell>
        <mxCell id="3yQ-uEPfvCkX8q001NSK-17" value="adbMgr isConnect？" style="rhombus;whiteSpace=wrap;html=1;" vertex="1" parent="1">
          <mxGeometry x="40" y="490" width="200" height="80" as="geometry" />
        </mxCell>
      </root>
    </mxGraphModel>
  </diagram>
</mxfile>
